# xmcd
#
# Track frame offsets: 
#        150
#        8362
#        19355
#        30922
#        46107
#        57762
#        70527
#        78025
#        88800
#        103200
#        114150
#        129430
#        143232
#        155277
#        168507
#        180995
#        195600
#        206795
#
# Disc length: 2918 seconds
#
# Revision: 0
# Processed by: cddbd v1.5.1PL0 Copyright (c) Steve Scherf et al.
# Submitted via: ExactAudioCopy v0.95a4
#
DISCID=d70b6412
DTITLE=Various Artist - Selection Of Country genetlemen (787) CD 2
DYEAR=1997
DGENRE=Country
TTITLE0=Jim Reeves - Waiting For A Train
TTITLE1=Roger Miller - King Of The Road
TTITLE2=Conway Twitty - To See My Angel Cry
TTITLE3=Don Fardon - Indian Reservation
TTITLE4=Karl Denver - Wimoweh
TTITLE5=Lee Hazlewood - These Boots Were Made For Walking
TTITLE6=Jim Reeves - Blue Boy
TTITLE7=Ferlin Husky - Gone
TTITLE8=B. J. Thomas - Hooked On A Feeling
TTITLE9=Hank Locklin - Send Me The Pillow That You Dream On
TTITLE10=Kenny Rogers and The First Edition - For The Good Times
TTITLE11=George Jones - A Good Year For The Roses
TTITLE12=Tex Ritter - Good Bay My Little Cherokee
TTITLE13=Roy Acuff - Tennessee Waltz
TTITLE14=Glen Campbel - Rhinestone Cowboy
TTITLE15=Johnny Tillotson - I Can't Stop Loving You
TTITLE16=Rex Allen Jr. - Dream On Texas Ladies
TTITLE17=Johnny Paycheck - Take This Job And Shove It
EXTD=
EXTT0=
EXTT1=
EXTT2=
EXTT3=
EXTT4=
EXTT5=
EXTT6=
EXTT7=
EXTT8=
EXTT9=
EXTT10=
EXTT11=
EXTT12=
EXTT13=
EXTT14=
EXTT15=
EXTT16=
EXTT17=
PLAYORDER=
